<?xml version="1.0" encoding="UTF-8"?>
<svg id="_Слой_1" xmlns="http://www.w3.org/2000/svg" version="1.1" viewBox="0 0 239.87 96">
  <!-- Generator: Adobe Illustrator 29.5.0, SVG Export Plug-In . SVG Version: 2.1.0 Build 137)  -->
  <rect x="8.83" y="17.11" width="227.41" height="72.45" rx="10.2" ry="10.2" transform="translate(-2.47 6.07) rotate(-2.81)" fill="#96bc5b"/>
  <rect x="2.35" y="11.9" width="227.41" height="72.45" rx="10.2" ry="10.2" transform="translate(-2.22 5.75) rotate(-2.81)" fill="#1b64ce"/>
  <g>
    <path d="M19.8,66.31c.21-3.65.32-6.35.32-8.09l1.57-1.54c.21-.21,1.85-1.98,4.92-5.3l8.83-9.55c1.03-1.15,2.22-2.53,3.59-4.13l-2.1-.03-2.1-.03h-3.7c-2.8,0-5.76.1-8.88.29.16-1.92.24-3.99.24-6.23,0-.43-.02-1-.05-1.73,5.04.03,10.39.05,16.05.05s10.9-.02,15.15-.05c-.12,1.86-.2,3.34-.24,4.42l-.11,3.57-1.52,1.46c-.25.25-.5.51-.75.77l-16.66,18.23,3.64.03c.87,0,2.13,0,3.78-.03l7.34-.16c.55-.02,1.52-.06,2.9-.14-.2,3.16-.33,5.89-.4,8.17-5.66-.03-10.8-.05-15.41-.05h-6.07l-6.87.03-3.49.03h.02Z" fill="#fff"/>
    <path d="M57.44,66.31c.45-4.19.77-7.6.96-10.25.37-4.83.65-9.62.84-14.39s.28-8.66.28-11.7c2.41.03,4.55.05,6.41.05,1.26,0,3.07-.02,5.43-.05l-.64,9.63-.8,15.07-.11,3.7c3.05.05,5.04.08,5.97.08,4.67,0,8.2-.06,10.6-.18l-.58,8.04c-4.67-.03-9.11-.05-13.34-.05-5.72,0-10.72.02-15.01.05h0Z" fill="#fff"/>
    <path d="M111.63,29.28c2.84,0,5.57.38,8.2,1.15,2.62.76,4.92,1.98,6.89,3.66,1.97,1.67,3.44,3.61,4.42,5.79.98,2.18,1.46,4.7,1.46,7.53,0,2.98-.54,5.72-1.61,8.21-1.08,2.5-2.62,4.61-4.64,6.35-2.02,1.74-4.44,3.01-7.24,3.82-2.81.81-5.72,1.21-8.76,1.21s-5.87-.39-8.62-1.18-5.14-2.07-7.17-3.83-3.47-3.73-4.33-5.9c-.85-2.16-1.28-4.57-1.28-7.21,0-3.89.9-7.3,2.7-10.24,1.8-2.94,4.47-5.23,8.01-6.88s7.53-2.47,11.97-2.47h0ZM111.15,37.29c-2.04,0-3.88.5-5.54,1.51-1.65,1-2.92,2.39-3.8,4.18-.89,1.78-1.33,3.7-1.33,5.74,0,1.88.41,3.6,1.21,5.17.81,1.56,2.04,2.78,3.69,3.66s3.4,1.32,5.24,1.32c1.97,0,3.78-.49,5.42-1.48,1.64-.98,2.89-2.37,3.75-4.15s1.29-3.65,1.29-5.6-.4-3.65-1.2-5.26c-.8-1.61-1.97-2.85-3.51-3.74-1.54-.89-3.28-1.33-5.22-1.33,0,0,0-.02,0-.02Z" fill="#fff"/>
    <path d="M168.32,57.44c-.21,1.04-.47,2.5-.77,4.37-.3,1.86-.5,3.31-.61,4.34-3.8.57-7.19.85-10.17.85s-5.55-.36-8.02-1.08-4.75-1.9-6.81-3.54c-2.07-1.64-3.55-3.57-4.43-5.79s-1.33-4.7-1.33-7.45c0-3.21.6-6.1,1.8-8.66s2.92-4.7,5.16-6.41,4.71-2.94,7.39-3.67,5.45-1.11,8.31-1.11c2.62,0,5.87.34,9.74,1.01l.05,2.24c.04.98.09,2.05.16,3.22l.19,3.03c-2.08-.49-3.76-.83-5.04-1.01s-2.48-.27-3.58-.27c-2.4,0-4.55.48-6.47,1.44s-3.42,2.35-4.52,4.18-1.65,3.85-1.65,6.07c0,2.02.46,3.76,1.38,5.2.92,1.45,2.17,2.56,3.74,3.35s3.51,1.19,5.82,1.19c1.26,0,2.63-.1,4.11-.31s3.34-.6,5.58-1.19h-.03Z" fill="#fff"/>
    <path d="M173.38,66.31c.34-3.32.58-6.07.72-8.25.27-3.87.55-9.17.86-15.89.21-4.68.32-7.99.32-9.9v-2.29c2.96.03,5,.05,6.12.05.74,0,2.66-.02,5.74-.05l-1.26,19.88-.64,16.45-5.77-.05c-.82,0-2.85.02-6.09.05h0ZM186.72,47.13l5.96-8.11,4.82-6.75,1.49-2.29c3.3.03,5.54.05,6.71.05.32,0,2.44-.02,6.36-.05l-11.23,14.18-2.1,2.85,1.97,3.14,11.13,16.17-6.55-.05c-1.42,0-3.82.02-7.21.05-2.29-4.31-6.07-10.71-11.34-19.18h-.01Z" fill="#fff"/>
  </g>
  <path d="M136.26,19.88c.09,1.91.23,6.7-3.33,6.87-3.55.17-11.91-2.54-18.74-2.21s-9.52.57-11.48.66c-4.41.22-10.43,2.01-13.18,2.15-3.46.17-3.62-3.09-3.72-4.99l-.52-10.64c-.09-1.91-.25-5.16,3.21-5.33,2.75-.14,8.92,1.06,13.33.85,1.95-.1,4.66-.13,11.49-.46s14.88-3.86,18.43-4.03,3.89,4.6,3.98,6.51l.52,10.64v-.02h0ZM97.59,12.73c-1.93.09-3.43,1.74-3.33,3.68.09,1.93,1.74,3.43,3.68,3.33s3.43-1.74,3.33-3.68c-.09-1.93-1.74-3.43-3.68-3.33Z" fill="#96bc5b"/>
</svg>